<svg width="235" height="235" viewBox="0 0 235 235" fill="none" xmlns="http://www.w3.org/2000/svg">
<g id="Frame 885">
<path id="Ellipse 5" d="M117.5 235C132.93 235 148.21 231.961 162.465 226.056C176.721 220.151 189.674 211.496 200.585 200.585C211.496 189.674 220.151 176.721 226.056 162.465C231.961 148.21 235 132.93 235 117.5L218.019 117.5C218.019 130.7 215.419 143.771 210.368 155.967C205.316 168.163 197.912 179.244 188.578 188.578C179.244 197.912 168.163 205.316 155.967 210.368C143.771 215.419 130.7 218.019 117.5 218.019L117.5 235Z" fill="#FEFEFF"/>
<path id="Ellipse 6" d="M235 117.5C235 94.2607 228.109 71.5433 215.198 52.2205C202.287 32.8977 183.936 17.8375 162.465 8.94415C140.995 0.0508579 117.37 -2.27603 94.5769 2.25773C71.7841 6.79149 50.8476 17.9823 34.415 34.415C17.9823 50.8476 6.79149 71.7841 2.25773 94.5769C-2.27603 117.37 0.0508582 140.995 8.94416 162.465C17.8375 183.936 32.8977 202.287 52.2205 215.198C71.5433 228.109 94.2607 235 117.5 235V217.657C97.6908 217.657 78.3265 211.783 61.8558 200.777C45.3851 189.772 32.5477 174.13 24.967 155.828C17.3864 137.527 15.403 117.389 19.2675 97.9604C23.1321 78.5318 32.6711 60.6855 46.6783 46.6783C60.6855 32.6711 78.5318 23.1321 97.9604 19.2675C117.389 15.403 137.527 17.3864 155.828 24.967C174.13 32.5477 189.772 45.3851 200.777 61.8558C211.783 78.3265 217.657 97.6908 217.657 117.5H235Z" fill="#678ECB"/>
</g>
</svg>
