<svg width="24" height="24" viewBox="0 0 24 24" fill="none" xmlns="http://www.w3.org/2000/svg">
<g id="controls">
<g id="Group">
<path id="Path 2 (Stroke)" fill-rule="evenodd" clip-rule="evenodd" d="M5.5 7C5.5 6.72386 5.72386 6.5 6 6.5L18 6.5C18.2761 6.5 18.5 6.72386 18.5 7C18.5 7.27614 18.2761 7.5 18 7.5L6 7.5C5.72386 7.5 5.5 7.27614 5.5 7Z" fill="#3A5F95"/>
<path id="Path 2 (Stroke)_2" fill-rule="evenodd" clip-rule="evenodd" d="M5.5 12C5.5 11.7239 5.72386 11.5 6 11.5L18 11.5C18.2761 11.5 18.5 11.7239 18.5 12C18.5 12.2761 18.2761 12.5 18 12.5L6 12.5C5.72386 12.5 5.5 12.2761 5.5 12Z" fill="#3A5F95"/>
<path id="Path 2 (Stroke)_3" fill-rule="evenodd" clip-rule="evenodd" d="M5.5 17C5.5 16.7239 5.72386 16.5 6 16.5L18 16.5C18.2761 16.5 18.5 16.7239 18.5 17C18.5 17.2761 18.2761 17.5 18 17.5L6 17.5C5.72386 17.5 5.5 17.2761 5.5 17Z" fill="#3A5F95"/>
</g>
<path id="Path 2 (Stroke)_4" fill-rule="evenodd" clip-rule="evenodd" d="M8 19.5C7.72386 19.5 7.5 19.2761 7.5 19L7.5 15C7.5 14.7239 7.72386 14.5 8 14.5C8.27614 14.5 8.5 14.7239 8.5 15L8.5 19C8.5 19.2761 8.27614 19.5 8 19.5Z" fill="#3A5F95"/>
<path id="Path 2 (Stroke)_5" fill-rule="evenodd" clip-rule="evenodd" d="M16 14.5C15.7239 14.5 15.5 14.2761 15.5 14L15.5 10C15.5 9.72386 15.7239 9.5 16 9.5C16.2761 9.5 16.5 9.72386 16.5 10L16.5 14C16.5 14.2761 16.2761 14.5 16 14.5Z" fill="#3A5F95"/>
<path id="Path 2 (Stroke)_6" fill-rule="evenodd" clip-rule="evenodd" d="M12 9.5C11.7239 9.5 11.5 9.27614 11.5 9L11.5 5C11.5 4.72386 11.7239 4.5 12 4.5C12.2761 4.5 12.5 4.72386 12.5 5L12.5 9C12.5 9.27614 12.2761 9.5 12 9.5Z" fill="#3A5F95"/>
</g>
</svg>
