<svg width="130" height="61" viewBox="0 0 130 61" fill="none" xmlns="http://www.w3.org/2000/svg">
<g clip-path="url(#clip0_6764_58475)">
<path d="M63.0074 6.03732C63.124 6.08152 54.7976 26.8115 30.6647 46.5903C30.5684 46.6692 26.6466 28.2066 8.36524 3.32038C8.34738 3.29607 37.1334 -3.78975 63.0074 6.03732Z" fill="#85A4DA"/>
<path d="M62.0216 15.7179C61.6367 15.5546 61.2514 15.3953 60.8656 15.2385C56.5693 22.8801 45.5665 39.4654 24.9113 55.0925C24.808 55.1707 21.7163 37.2719 5.85183 11.8166L11.4203 11.1384L9.72329 8.8111L4.48664 9.65566C4.48351 9.65087 4.48075 9.64627 4.47762 9.6413C2.0732 9.98605 0.716844 10.2697 0.720711 10.2754C20.1817 39.0468 23.7828 59.9711 23.8944 59.8868C51.8848 38.7094 62.15 15.7728 62.0216 15.7179Z" fill="#4A79BD"/>
<path d="M70.6523 39.3135L81.1816 27.9284H71.2555V22.1246H90.3786V27.1985L79.7548 38.9647H90.8856V44.7681H70.6523V39.3135Z" fill="#4A79BD"/>
<path d="M98.974 37.1567C98.974 37.7281 99.0694 38.2354 99.2275 38.6471C99.7353 40.0111 101.257 40.2964 102.558 40.2964C103.699 40.2964 105.443 39.9158 105.443 38.2351C105.443 37.0617 104.46 36.7447 100.56 35.6345C96.9759 34.6194 92.8849 33.6367 92.8849 29.0695C92.8849 23.837 97.3565 21.5857 102.019 21.5857C106.934 21.5857 111.279 23.4567 111.47 28.9745H104.873C105 28.1182 104.62 27.5476 104.048 27.167C103.478 26.7546 102.685 26.5961 101.987 26.5961C101.035 26.5961 99.4814 26.8496 99.4814 28.1182C99.6086 29.7354 102.843 30.0842 106.047 30.9723C109.25 31.8607 112.421 33.3511 112.421 37.5056C112.421 43.404 106.998 45.3068 101.956 45.3068C99.3872 45.3068 92.0616 44.387 91.998 37.1563H98.974V37.1567Z" fill="#4A79BD"/>
<path d="M114.545 22.1256H121.522V44.7691H114.545V22.1256Z" fill="#4A79BD"/>
</g>
<defs>
<clipPath id="clip0_6764_58475">
<rect width="130" height="59.3477" fill="white" transform="translate(0 0.826172)"/>
</clipPath>
</defs>
</svg>
