<svg width="421" height="57" viewBox="0 0 421 57" fill="none" xmlns="http://www.w3.org/2000/svg">
<path d="M59.1436 4.94777C59.2543 4.98974 51.348 24.674 28.4324 43.4551C28.3409 43.53 24.617 25.9987 7.25782 2.36788C7.24068 2.34462 34.5748 -4.38376 59.1436 4.94777Z" fill="#85A4DA"/>
<path d="M58.2086 14.1407C57.8431 13.9856 57.4773 13.8343 57.111 13.6855C53.0314 20.9416 42.5836 36.6903 22.9703 51.529C22.8722 51.6034 19.9365 34.6074 4.87229 10.4362L10.1599 9.79214L8.54846 7.58228L3.57597 8.38424C3.57299 8.37969 3.57037 8.37532 3.5674 8.3706C1.28427 8.69779 -0.00366448 8.96709 7.83174e-06 8.97251C18.4793 36.2926 21.8987 56.1614 22.0047 56.0813C48.5831 35.9726 58.3305 14.1928 58.2086 14.1407Z" fill="#4A79BD"/>
<path d="M79.7773 17.5367V16.1174L86.7966 4.83902H80.0533V3.49878H88.4918V4.76064L81.4139 16.1964H88.4925V17.5373H79.7773V17.5367Z" fill="#4A79BD"/>
<path d="M92.043 17.5367V3.49878H100.757V4.83967H93.5413V9.78834H99.6925V11.1292H93.5413V16.1964H100.757V17.5373H92.043V17.5367Z" fill="#4A79BD"/>
<path d="M113.217 17.5367L105.764 6.2787V17.5367H104.266V3.49878H105.686L113.138 14.7172V3.49878H114.636V17.5367H113.217Z" fill="#4A79BD"/>
<path d="M123.216 4.83902V17.5367H121.718V4.83902H117.656V3.49878H127.278V4.83967L123.216 4.83902Z" fill="#4A79BD"/>
<path d="M138.357 17.5367L135.163 11.3064H131.791V17.5367H130.293V3.49878H135.676C138.12 3.49878 139.836 4.97732 139.836 7.40226C139.836 9.45311 138.594 10.7934 136.78 11.1681L140.113 17.5367H138.357ZM135.537 4.83902H131.791V9.9846H135.537C137.174 9.9846 138.337 9.13699 138.337 7.42136C138.338 5.70638 137.174 4.83902 135.537 4.83902Z" fill="#4A79BD"/>
<path d="M148.316 17.6552C145.477 17.6552 143.426 15.7032 143.426 12.9035V3.49878H144.924V12.7856C144.924 14.9148 146.265 16.315 148.315 16.315C150.365 16.315 151.726 14.9148 151.726 12.7856V3.49878H153.224V12.9035C153.225 15.7032 151.155 17.6552 148.316 17.6552Z" fill="#4A79BD"/>
<path d="M168.011 17.5367V6.87012L164.166 15.3284H162.885L158.981 6.87012V17.5367H157.482V3.49878H158.981L163.555 13.4554L168.011 3.49878H169.509V17.5367H168.011Z" fill="#4A79BD"/>
<path d="M180.768 4.83902V10.005H186.919V11.3459H180.768V17.5367H179.27V3.49878H187.984V4.83967L180.768 4.83902Z" fill="#4A79BD"/>
<path d="M195.792 17.6569C192.953 17.6569 190.902 15.7049 190.902 12.9052V3.5005H192.401V12.7873C192.401 14.9165 193.742 16.3167 195.792 16.3167C197.842 16.3167 199.203 14.9165 199.203 12.7873V3.5005H200.701V12.9052C200.702 15.7049 198.632 17.6569 195.792 17.6569ZM192.993 1.98179V0.227295H194.413V1.98179H192.993ZM197.172 1.98179V0.227295H198.592V1.98179H197.172Z" fill="#4A79BD"/>
<path d="M213.005 17.5367L209.811 11.3064H206.44V17.5367H204.941V3.49878H210.324C212.769 3.49878 214.484 4.97732 214.484 7.40226C214.484 9.45311 213.242 10.7934 211.428 11.1681L214.76 17.5367H213.005ZM210.186 4.83902H206.44V9.9846H210.186C211.822 9.9846 212.985 9.13699 212.985 7.42136C212.985 5.70638 211.822 4.83902 210.186 4.83902Z" fill="#4A79BD"/>
<path d="M227.182 17.6546C225.073 17.6546 223.692 17.1218 222.371 15.8014L223.397 14.7759C224.56 15.9397 225.644 16.3137 227.222 16.3137C229.272 16.3137 230.534 15.3476 230.534 13.711C230.534 12.9819 230.317 12.351 229.863 11.9565C229.41 11.562 229.054 11.4434 228.03 11.286L226.393 11.0299C225.289 10.852 224.421 10.497 223.81 9.96491C223.1 9.33398 222.745 8.46661 222.745 7.34239C222.745 4.95697 224.46 3.37964 227.241 3.37964C229.035 3.37964 230.218 3.83275 231.421 4.91745L230.455 5.88361C229.587 5.09527 228.661 4.68102 227.181 4.68102C225.308 4.68102 224.224 5.7262 224.224 7.28378C224.224 7.97332 224.421 8.52588 224.855 8.90062C225.289 9.27536 226.018 9.55131 226.747 9.6692L228.285 9.90563C229.606 10.1026 230.257 10.3792 230.848 10.8915C231.617 11.5422 232.031 12.5084 232.031 13.6715C232.033 16.1366 230.1 17.6546 227.182 17.6546Z" fill="#4A79BD"/>
<path d="M243.529 16.1952C242.583 17.1416 241.341 17.654 239.941 17.654C238.541 17.654 237.299 17.1416 236.352 16.1952C235.031 14.8741 235.031 13.4936 235.031 10.5168C235.031 7.53997 235.031 6.15956 236.352 4.83842C237.299 3.89202 238.541 3.37964 239.941 3.37964C241.341 3.37964 242.583 3.89202 243.529 4.83842C244.85 6.15956 244.85 7.53997 244.85 10.5168C244.85 13.4936 244.85 14.8741 243.529 16.1952ZM242.366 5.72555C241.755 5.09461 240.868 4.71987 239.941 4.71987C239.014 4.71987 238.127 5.09461 237.515 5.72555C236.628 6.63243 236.53 7.57882 236.53 10.5168C236.53 13.4541 236.628 14.4005 237.515 15.3081C238.127 15.939 239.014 16.3137 239.941 16.3137C240.868 16.3137 241.755 15.939 242.366 15.3081C243.253 14.4012 243.352 13.4548 243.352 10.5168C243.352 7.57882 243.253 6.63243 242.366 5.72555Z" fill="#4A79BD"/>
<path d="M247.865 17.5367V16.1174L254.885 4.83902H248.141V3.49878H256.58V4.76064L249.501 16.1964H256.58V17.5373H247.865V17.5367Z" fill="#4A79BD"/>
<path d="M260.129 17.5367V3.49878H261.627V17.5367H260.129Z" fill="#4A79BD"/>
<path d="M274.266 17.5367L273.142 14.3623H267.01L265.886 17.5367H264.289L269.455 3.49878H270.717L275.863 17.5367H274.266ZM270.106 5.64777L267.464 13.0609H272.709L270.106 5.64777Z" fill="#4A79BD"/>
<path d="M278.525 17.5367V3.49878H280.024V16.1964H287.2V17.5373H278.525V17.5367Z" fill="#4A79BD"/>
<path d="M290.219 17.5367V3.49878H298.933V4.83967H291.716V9.78834H297.868V11.1292H291.716V16.1964H298.933V17.5373H290.219V17.5367Z" fill="#4A79BD"/>
<path d="M307.746 17.5367V3.49878H309.243V17.5367H307.746Z" fill="#4A79BD"/>
<path d="M322.651 17.5367L315.196 6.2787V17.5367H313.699V3.49878H315.118L322.57 14.7172V3.49878H324.069V17.5367H322.651Z" fill="#4A79BD"/>
<path d="M337.478 17.5367L330.024 6.2787V17.5367H328.527V3.49878H329.946L337.399 14.7172V3.49878H338.897V17.5367H337.478Z" fill="#4A79BD"/>
<path d="M351.321 16.1952C350.374 17.1416 349.134 17.654 347.733 17.654C346.333 17.654 345.09 17.1416 344.145 16.1952C342.824 14.8741 342.824 13.4936 342.824 10.5168C342.824 7.53997 342.824 6.15956 344.145 4.83842C345.091 3.89202 346.333 3.37964 347.733 3.37964C349.134 3.37964 350.375 3.89202 351.321 4.83842C352.643 6.15956 352.643 7.53997 352.643 10.5168C352.643 13.4936 352.643 14.8741 351.321 16.1952ZM350.158 5.72555C349.547 5.09461 348.66 4.71987 347.732 4.71987C346.806 4.71987 345.918 5.09461 345.307 5.72555C344.419 6.63243 344.322 7.57882 344.322 10.5168C344.322 13.4541 344.419 14.4005 345.307 15.3081C345.918 15.939 346.805 16.3137 347.732 16.3137C348.659 16.3137 349.547 15.939 350.158 15.3081C351.046 14.4012 351.144 13.4548 351.144 10.5168C351.144 7.57882 351.046 6.63243 350.158 5.72555Z" fill="#4A79BD"/>
<path d="M360.527 17.5367H359.305L354.691 3.49878H356.269L359.916 14.8555L363.564 3.49878H365.141L360.527 17.5367Z" fill="#4A79BD"/>
<path d="M375.906 17.5367L374.783 14.3623H368.65L367.527 17.5367H365.93L371.096 3.49878H372.358L377.504 17.5367H375.906ZM371.746 5.64777L369.104 13.0609H374.348L371.746 5.64777Z" fill="#4A79BD"/>
<path d="M384.286 4.83902V17.5367H382.787V4.83902H378.727V3.49878H388.348V4.83967L384.286 4.83902Z" fill="#4A79BD"/>
<path d="M391.367 17.5367V3.49878H392.865V17.5367H391.367Z" fill="#4A79BD"/>
<path d="M405.286 16.1952C404.339 17.1416 403.096 17.654 401.697 17.654C400.297 17.654 399.055 17.1416 398.108 16.1952C396.787 14.8741 396.787 13.4936 396.787 10.5168C396.787 7.53997 396.787 6.15956 398.108 4.83842C399.055 3.89202 400.297 3.37964 401.697 3.37964C403.096 3.37964 404.339 3.89202 405.286 4.83842C406.607 6.15956 406.607 7.53997 406.607 10.5168C406.607 13.4936 406.607 14.8741 405.286 16.1952ZM404.122 5.72555C403.511 5.09461 402.624 4.71987 401.697 4.71987C400.77 4.71987 399.883 5.09461 399.272 5.72555C398.384 6.63243 398.285 7.57882 398.285 10.5168C398.285 13.4541 398.384 14.4005 399.272 15.3081C399.883 15.939 400.769 16.3137 401.697 16.3137C402.623 16.3137 403.511 15.939 404.122 15.3081C405.01 14.4012 405.108 13.4548 405.108 10.5168C405.108 7.57882 405.01 6.63243 404.122 5.72555Z" fill="#4A79BD"/>
<path d="M419.482 17.5367L412.03 6.2787V17.5367H410.531V3.49878H411.951L419.404 14.7172V3.49878H420.902V17.5367H419.482Z" fill="#4A79BD"/>
<path d="M84.9435 55.8542C83.3069 55.8542 82.0648 55.3023 81.0394 54.2768C79.5602 52.7976 79.6195 50.8265 79.6195 48.717C79.6195 46.6069 79.5602 44.6357 81.0394 43.1572C82.0648 42.1317 83.3069 41.5798 84.9435 41.5798C87.6056 41.5798 89.7545 43.0584 90.2669 46.1538H86.7573C86.5406 45.3654 86.1066 44.6555 84.9633 44.6555C84.3324 44.6555 83.8588 44.9117 83.6026 45.2469C83.2872 45.6605 83.0705 46.1538 83.0705 48.717C83.0705 51.2802 83.2872 51.7729 83.6026 52.1871C83.8588 52.5223 84.3324 52.7785 84.9633 52.7785C86.1066 52.7785 86.5406 52.0686 86.7573 51.2802H90.2669C89.7545 54.375 87.6056 55.8542 84.9435 55.8542Z" fill="#4A79BD"/>
<path d="M93.4219 55.7359V41.698H102.965V44.7736H96.8716V47.1195H102.077V50.1952H96.8716V52.6596H102.964V55.7352L93.4219 55.7359Z" fill="#4A79BD"/>
<path d="M114.695 55.7359L110.2 48.6771V55.7359H106.75V41.698H109.766L114.262 48.7561V41.698H117.712V55.7359H114.695Z" fill="#4A79BD"/>
<path d="M127.967 44.7736V55.7366H124.517V44.7736H121.066V41.698H131.418V44.7736H127.967Z" fill="#4A79BD"/>
<path d="M141.868 55.7359L139.384 50.5106H138.22V55.7359H134.77V41.698H140.33C143.445 41.698 145.121 43.9063 145.121 46.2126C145.121 48.1252 143.938 49.3278 142.834 49.8797L145.87 55.7359H141.868ZM140.172 44.7934H138.22V47.6326H140.172C141.118 47.6326 141.67 46.9424 141.67 46.2126C141.671 45.4836 141.118 44.7934 140.172 44.7934Z" fill="#4A79BD"/>
<path d="M148.965 55.7359V41.698H158.508V44.7736H152.415V47.1195H157.621V50.1952H152.415V52.6596H158.508V55.7352L148.965 55.7359Z" fill="#4A79BD"/>
<path d="M171.46 44.7736V47.2381H176.666V50.3137H171.46V55.7359H168.01V41.698H177.553V44.7736H171.46Z" fill="#4A79BD"/>
<path d="M189.916 54.2768C188.891 55.3023 187.708 55.8542 185.993 55.8542C184.277 55.8542 183.094 55.3023 182.069 54.2768C180.589 52.7976 180.649 50.8265 180.649 48.717C180.649 46.6069 180.589 44.6357 182.069 43.1572C183.094 42.1317 184.277 41.5798 185.993 41.5798C187.708 41.5798 188.891 42.1317 189.916 43.1572C191.396 44.6357 191.336 46.6075 191.336 48.717C191.336 50.8265 191.395 52.7976 189.916 54.2768ZM187.373 45.266C187.117 44.9308 186.624 44.6548 185.993 44.6548C185.362 44.6548 184.868 44.9308 184.612 45.266C184.297 45.6802 184.1 46.1531 184.1 48.7163C184.1 51.2796 184.297 51.7334 184.612 52.147C184.868 52.4822 185.362 52.7779 185.993 52.7779C186.624 52.7779 187.117 52.4822 187.373 52.147C187.688 51.7334 187.885 51.2796 187.885 48.7163C187.885 46.1531 187.688 45.6802 187.373 45.266Z" fill="#4A79BD"/>
<path d="M202.161 55.7359L199.677 50.5106H198.513V55.7359H195.062V41.698H200.623C203.738 41.698 205.414 43.9063 205.414 46.2126C205.414 48.1252 204.231 49.3278 203.127 49.8797L206.163 55.7359H202.161ZM200.465 44.7934H198.513V47.6326H200.465C201.411 47.6326 201.963 46.9424 201.963 46.2126C201.963 45.4836 201.411 44.7934 200.465 44.7934Z" fill="#4A79BD"/>
<path d="M218.982 55.8542C216.833 55.8542 215.077 55.4597 213.658 54.0009L215.866 51.7926C216.596 52.5217 217.877 52.7785 219.001 52.7785C220.362 52.7785 221.013 52.3254 221.013 51.5167C221.013 51.1815 220.934 50.9055 220.737 50.6888C220.559 50.511 220.263 50.3734 219.81 50.3141L218.114 50.0777C216.872 49.9005 215.926 49.4862 215.295 48.8355C214.644 48.1651 214.329 47.2187 214.329 46.0161C214.329 43.4529 216.261 41.5798 219.455 41.5798C221.466 41.5798 222.985 42.0527 224.187 43.2553L222.018 45.424C221.131 44.5363 219.968 44.5955 219.356 44.5955C218.154 44.5955 217.66 45.2857 217.66 45.8969C217.66 46.0747 217.72 46.3309 217.936 46.5476C218.114 46.7254 218.41 46.9026 218.903 46.9619L220.598 47.1983C221.86 47.3761 222.767 47.7699 223.359 48.3614C224.108 49.0911 224.404 50.1356 224.404 51.437C224.404 54.2966 221.939 55.8542 218.982 55.8542Z" fill="#4A79BD"/>
<path d="M236.823 54.2768C235.797 55.3023 234.614 55.8542 232.899 55.8542C231.183 55.8542 230 55.3023 228.975 54.2768C227.496 52.7976 227.555 50.8265 227.555 48.717C227.555 46.6069 227.496 44.6357 228.975 43.1572C230 42.1317 231.183 41.5798 232.899 41.5798C234.614 41.5798 235.797 42.1317 236.823 43.1572C238.302 44.6357 238.243 46.6075 238.243 48.717C238.243 50.8265 238.302 52.7976 236.823 54.2768ZM234.279 45.266C234.023 44.9308 233.53 44.6548 232.899 44.6548C232.268 44.6548 231.775 44.9308 231.518 45.266C231.203 45.6802 231.006 46.1531 231.006 48.7163C231.006 51.2796 231.203 51.7334 231.518 52.147C231.775 52.4822 232.268 52.7779 232.899 52.7779C233.53 52.7779 234.023 52.4822 234.279 52.147C234.595 51.7334 234.792 51.2796 234.792 48.7163C234.792 46.1531 234.595 45.6802 234.279 45.266Z" fill="#4A79BD"/>
<path d="M246.84 55.8542C245.203 55.8542 243.961 55.3023 242.936 54.2768C241.457 52.7976 241.516 50.8265 241.516 48.717C241.516 46.6069 241.457 44.6357 242.936 43.1572C243.961 42.1317 245.203 41.5798 246.84 41.5798C249.502 41.5798 251.651 43.0584 252.163 46.1538H248.654C248.437 45.3654 248.003 44.6555 246.86 44.6555C246.229 44.6555 245.756 44.9117 245.499 45.2469C245.184 45.6605 244.967 46.1538 244.967 48.717C244.967 51.2802 245.184 51.7729 245.499 52.1871C245.756 52.5223 246.229 52.7785 246.86 52.7785C248.003 52.7785 248.437 52.0686 248.654 51.2802H252.163C251.651 54.375 249.501 55.8542 246.84 55.8542Z" fill="#4A79BD"/>
<path d="M255.318 55.7359V41.698H258.769V55.7359H255.318Z" fill="#4A79BD"/>
<path d="M270.797 55.7359L270.147 53.6462H265.829L265.138 55.7359H261.529L266.636 41.698H269.298L274.405 55.7359H270.797ZM268.057 47.0214L266.795 50.7675H269.239L268.057 47.0214Z" fill="#4A79BD"/>
<path d="M277.164 55.7359V41.698H280.614V52.6603H286.509V55.7359H277.164Z" fill="#4A79BD"/>
<path d="M295.578 55.7359V41.698H299.029V55.7359H295.578Z" fill="#4A79BD"/>
<path d="M311.156 55.7359L306.661 48.6771V55.7359H303.211V41.698H306.227L310.723 48.7561V41.698H314.173V55.7359H311.156Z" fill="#4A79BD"/>
<path d="M326.299 55.7359L321.803 48.6771V55.7359H318.354V41.698H321.37L325.865 48.7561V41.698H329.315V55.7359H326.299Z" fill="#4A79BD"/>
<path d="M342.31 54.2768C341.284 55.3023 340.101 55.8542 338.386 55.8542C336.671 55.8542 335.489 55.3023 334.462 54.2768C332.984 52.7976 333.043 50.8265 333.043 48.717C333.043 46.6069 332.984 44.6357 334.462 43.1572C335.489 42.1317 336.671 41.5798 338.386 41.5798C340.101 41.5798 341.284 42.1317 342.31 43.1572C343.789 44.6357 343.73 46.6075 343.73 48.717C343.73 50.8265 343.79 52.7976 342.31 54.2768ZM339.767 45.266C339.509 44.9308 339.017 44.6548 338.386 44.6548C337.755 44.6548 337.262 44.9308 337.006 45.266C336.691 45.6802 336.493 46.1531 336.493 48.7163C336.493 51.2796 336.691 51.7334 337.006 52.147C337.262 52.4822 337.755 52.7779 338.386 52.7779C339.017 52.7779 339.509 52.4822 339.767 52.147C340.082 51.7334 340.279 51.2796 340.279 48.7163C340.279 46.1531 340.082 45.6802 339.767 45.266Z" fill="#4A79BD"/>
<path d="M353.232 55.7359H350.668L346.035 41.698H349.605L351.97 49.5451L354.297 41.698H357.885L353.232 55.7359Z" fill="#4A79BD"/>
<path d="M368.494 55.7359L367.843 53.6462H363.525L362.835 55.7359H359.227L364.333 41.698H366.995L372.101 55.7359H368.494ZM365.753 47.0214L364.491 50.7675H366.936L365.753 47.0214Z" fill="#4A79BD"/>
<path d="M380.935 44.7736V55.7366H377.485V44.7736H374.035V41.698H384.386V44.7736H380.935Z" fill="#4A79BD"/>
<path d="M387.738 55.7359V41.698H391.188V55.7359H387.738Z" fill="#4A79BD"/>
<path d="M404.181 54.2768C403.155 55.3023 401.972 55.8542 400.258 55.8542C398.542 55.8542 397.36 55.3023 396.333 54.2768C394.855 52.7976 394.914 50.8265 394.914 48.717C394.914 46.6069 394.855 44.6357 396.333 43.1572C397.36 42.1317 398.542 41.5798 400.258 41.5798C401.973 41.5798 403.155 42.1317 404.181 43.1572C405.66 44.6357 405.601 46.6075 405.601 48.717C405.601 50.8265 405.66 52.7976 404.181 54.2768ZM401.637 45.266C401.38 44.9308 400.887 44.6548 400.257 44.6548C399.625 44.6548 399.133 44.9308 398.876 45.266C398.561 45.6802 398.363 46.1531 398.363 48.7163C398.363 51.2796 398.562 51.7334 398.876 52.147C399.133 52.4822 399.625 52.7779 400.257 52.7779C400.887 52.7779 401.38 52.4822 401.637 52.147C401.953 51.7334 402.149 51.2796 402.149 48.7163C402.15 46.1531 401.953 45.6802 401.637 45.266Z" fill="#4A79BD"/>
<path d="M417.273 55.7359L412.778 48.6771V55.7359H409.328V41.698H412.344L416.84 48.7561V41.698H420.29V55.7359H417.273Z" fill="#4A79BD"/>
<path d="M79.1035 29.4373H420.999" stroke="#4A79BD" stroke-width="0.92203"/>
</svg>
