<?xml version="1.0" encoding="UTF-8"?>
<svg id="Ebene_2" xmlns="http://www.w3.org/2000/svg" viewBox="0 0 1921.5 1824.26">
  <defs>
    <style>
      .cls-1 {
        fill: #b3c6e8;
        fill-rule: evenodd;
      }

      .cls-1, .cls-2 {
        isolation: isolate;
        opacity: .08;
      }

      .cls-2 {
        fill: #80b3dc;
      }
    </style>
  </defs>
  <g id="Ebene_1-2" data-name="Ebene_1">
    <path class="cls-2" d="M1921.5,148.32C1361.23-67.13,610.61-1.3,305.34,58.55c416.61,631.97,616.54,1137.07,664.42,1310.62,416.61-373.44,808.08-969.5,951.74-1220.85Z"/>
    <path class="cls-1" d="M311.5,202.26l65.32,83.81-197.04,57.33c100.3,148.03,232.86,362.24,350.5,591.41,118.73,231.31,224.95,482.95,264.74,698.86,262.3-195.03,751.72-640.05,1060.38-1206.95l46.64,21.13c-349.8,642.45-873.59,1160.64-1117.67,1325.69l-74.98,50.71-8.71-90.21c-20.49-212.08-131.44-487.49-266.14-749.91C300.66,723.32,146.81,481.91,46.41,339.91L0,274.28l311.5-72.01Z"/>
  </g>
</svg>