<svg width="24" height="25" viewBox="0 0 24 25" fill="none" xmlns="http://www.w3.org/2000/svg">
<g clip-path="url(#clip0_8466_6689)">
<mask id="mask0_8466_6689" style="mask-type:luminance" maskUnits="userSpaceOnUse" x="0" y="2" width="22" height="22">
<path d="M0.431641 2.81714H21.2646V23.6481H0.431641V2.81714Z" fill="white"/>
</mask>
<g mask="url(#mask0_8466_6689)">
<path d="M21.2541 21.9134V4.56136C21.2541 3.60292 20.4773 2.82617 19.5188 2.82617H2.16683C1.20845 2.82617 0.431641 3.60292 0.431641 4.56136V21.9134C0.431641 22.8717 1.20845 23.6485 2.16683 23.6485H19.5188C20.4773 23.6485 21.2541 22.8717 21.2541 21.9134Z" fill="#1C9957"/>
</g>
<mask id="mask1_8466_6689" style="mask-type:luminance" maskUnits="userSpaceOnUse" x="2" y="14" width="18" height="10">
<path d="M2.09766 14.385H19.6017V23.648H2.09766V14.385Z" fill="white"/>
</mask>
<g mask="url(#mask1_8466_6689)">
<path d="M2.16665 23.6479H19.5186C20.4771 23.6479 10.8426 14.3936 10.8426 14.3936C10.8426 14.3936 1.20827 23.6479 2.16665 23.6479Z" fill="#3E7BF1"/>
</g>
<path d="M21.2525 21.9129V4.56094C21.2525 3.6025 11.998 13.2369 11.998 13.2369C11.998 13.2369 21.2525 22.8713 21.2525 21.9129Z" fill="#CBCCC9"/>
<mask id="mask2_8466_6689" style="mask-type:luminance" maskUnits="userSpaceOnUse" x="10" y="12" width="12" height="12">
<path d="M10.2559 12.657H21.2639V23.648H10.2559V12.657Z" fill="white"/>
</mask>
<g mask="url(#mask2_8466_6689)">
<path d="M19.518 23.648C20.4765 23.648 21.2533 22.8712 21.2533 21.9128V21.7711L12.1406 12.6584L10.2637 14.5353L19.3764 23.648H19.518Z" fill="#EFEFEF"/>
</g>
<mask id="mask3_8466_6689" style="mask-type:luminance" maskUnits="userSpaceOnUse" x="0" y="2" width="22" height="22">
<path d="M0.431641 2.81714H21.2646V23.6481H0.431641V2.81714Z" fill="white"/>
</mask>
<g mask="url(#mask3_8466_6689)">
<path d="M21.2541 4.56136C21.2541 3.60292 20.4773 2.82617 19.5188 2.82617H19.3771L0.431641 21.7717V21.9134C0.431641 22.8717 1.20845 23.6485 2.16683 23.6485H2.30858L21.2541 4.70305V4.56136Z" fill="#FFD73D"/>
</g>
<mask id="mask4_8466_6689" style="mask-type:luminance" maskUnits="userSpaceOnUse" x="11" y="0" width="13" height="19">
<path d="M11.9844 0.512451H23.5674V18.4495H11.9844V0.512451Z" fill="white"/>
</mask>
<g mask="url(#mask4_8466_6689)">
<path d="M17.784 0.512451C14.5895 0.512451 12 3.10195 12 6.29645C12 10.2371 16.434 11.6727 17.3982 17.7783C17.4601 18.1716 17.4647 18.4429 17.784 18.4429C18.1033 18.4429 18.1079 18.1716 18.1698 17.7783C19.134 11.6727 23.568 10.2371 23.568 6.29645C23.568 3.10195 20.9785 0.512451 17.784 0.512451Z" fill="#D73F35"/>
</g>
<path d="M17.7841 4.27173C17.751 4.27173 17.7179 4.27254 17.6848 4.27417C17.6517 4.27579 17.6187 4.27823 17.5857 4.28148C17.5528 4.28473 17.5199 4.28879 17.4871 4.2936C17.4543 4.29848 17.4217 4.30417 17.3892 4.3106C17.3567 4.3171 17.3244 4.32435 17.2923 4.33235C17.2601 4.34042 17.2282 4.34929 17.1965 4.35892C17.1648 4.36848 17.1333 4.37892 17.1021 4.39004C17.071 4.40123 17.0401 4.4131 17.0095 4.42579C16.9788 4.43848 16.9486 4.45192 16.9186 4.4661C16.8886 4.48023 16.8591 4.49517 16.8298 4.51073C16.8006 4.52635 16.7718 4.54267 16.7434 4.55973C16.715 4.57679 16.687 4.59448 16.6595 4.61292C16.6319 4.63129 16.6048 4.65035 16.5782 4.6701C16.5516 4.68985 16.5255 4.71023 16.4999 4.73123C16.4743 4.75223 16.4492 4.77392 16.4246 4.7961C16.4001 4.81835 16.3761 4.84123 16.3527 4.86467C16.3293 4.8881 16.3064 4.91204 16.2841 4.9366C16.2619 4.96117 16.2403 4.98623 16.2193 5.01185C16.1983 5.03748 16.1779 5.06354 16.1581 5.09017C16.1384 5.11679 16.1193 5.14385 16.101 5.17142C16.0825 5.19898 16.0648 5.22698 16.0478 5.25535C16.0308 5.28379 16.0144 5.3126 15.9988 5.34179C15.9832 5.37104 15.9683 5.4006 15.9541 5.4306C15.94 5.46054 15.9265 5.49079 15.9138 5.52142C15.9011 5.55204 15.8893 5.58292 15.8781 5.6141C15.867 5.64529 15.8565 5.67673 15.847 5.70848C15.8373 5.74017 15.8285 5.7721 15.8204 5.80423C15.8124 5.83635 15.8051 5.86867 15.7986 5.90117C15.7922 5.93367 15.7865 5.96629 15.7816 5.9991C15.7768 6.03185 15.7728 6.06473 15.7695 6.09767C15.7663 6.13067 15.7638 6.16367 15.7622 6.19679C15.7606 6.22985 15.7598 6.26298 15.7598 6.2961C15.7598 6.32923 15.7606 6.36235 15.7622 6.39542C15.7638 6.42854 15.7663 6.46154 15.7695 6.49454C15.7728 6.52754 15.7768 6.56035 15.7816 6.59317C15.7865 6.62592 15.7922 6.65854 15.7986 6.69104C15.8051 6.72354 15.8124 6.75585 15.8204 6.78798C15.8285 6.82017 15.8373 6.85204 15.847 6.88379C15.8565 6.91548 15.867 6.94692 15.8781 6.9781C15.8893 7.00929 15.9011 7.04023 15.9138 7.07079C15.9265 7.10142 15.94 7.13173 15.9541 7.16167C15.9683 7.1916 15.9832 7.22117 15.9988 7.25042C16.0144 7.2796 16.0308 7.30842 16.0478 7.33685C16.0648 7.36529 16.0825 7.39329 16.101 7.42079C16.1193 7.44835 16.1384 7.47542 16.1581 7.50204C16.1779 7.52867 16.1983 7.55479 16.2193 7.58035C16.2403 7.60598 16.2619 7.63104 16.2841 7.6556C16.3064 7.68017 16.3293 7.70417 16.3527 7.7276C16.3761 7.75098 16.4001 7.77385 16.4246 7.7961C16.4492 7.81835 16.4743 7.83998 16.4999 7.86098C16.5255 7.88204 16.5516 7.90242 16.5782 7.9221C16.6048 7.94185 16.6319 7.96092 16.6595 7.97935C16.687 7.99773 16.715 8.01548 16.7434 8.03248C16.7718 8.04954 16.8006 8.06585 16.8298 8.08148C16.8591 8.0971 16.8886 8.11198 16.9186 8.12617C16.9486 8.14029 16.9788 8.15373 17.0095 8.16642C17.0401 8.1791 17.071 8.19104 17.1021 8.20217C17.1333 8.21335 17.1648 8.22373 17.1965 8.23335C17.2282 8.24298 17.2601 8.25179 17.2923 8.25985C17.3244 8.26792 17.3567 8.27517 17.3892 8.2816C17.4217 8.2881 17.4543 8.29373 17.4871 8.2986C17.5199 8.30348 17.5528 8.30754 17.5857 8.31079C17.6187 8.31404 17.6517 8.31648 17.6848 8.3181C17.7179 8.31973 17.751 8.32054 17.7841 8.32054C17.8173 8.32054 17.8504 8.31973 17.8835 8.3181C17.9166 8.31648 17.9496 8.31404 17.9826 8.31079C18.0155 8.30754 18.0484 8.30348 18.0812 8.2986C18.114 8.29373 18.1466 8.2881 18.1791 8.2816C18.2116 8.27517 18.2439 8.26792 18.276 8.25985C18.3082 8.25179 18.3401 8.24298 18.3718 8.23335C18.4035 8.22373 18.435 8.21335 18.4661 8.20217C18.4973 8.19104 18.5283 8.1791 18.5588 8.16642C18.5895 8.15373 18.6198 8.14029 18.6497 8.12617C18.6796 8.11198 18.7092 8.0971 18.7385 8.08148C18.7676 8.06585 18.7965 8.04954 18.8249 8.03248C18.8533 8.01548 18.8813 7.99773 18.9088 7.97935C18.9364 7.96092 18.9635 7.94185 18.9901 7.9221C19.0167 7.90242 19.0428 7.88204 19.0684 7.86098C19.094 7.83998 19.1191 7.81835 19.1436 7.7961C19.1682 7.77385 19.1922 7.75098 19.2156 7.7276C19.239 7.70417 19.2619 7.68017 19.2841 7.6556C19.3064 7.63104 19.328 7.60598 19.349 7.58035C19.3701 7.55479 19.3905 7.52867 19.4101 7.50204C19.4299 7.47542 19.449 7.44835 19.4674 7.42079C19.4858 7.39329 19.5035 7.36529 19.5205 7.33685C19.5376 7.30842 19.5539 7.2796 19.5695 7.25042C19.5851 7.22117 19.6 7.1916 19.6142 7.16167C19.6283 7.13173 19.6418 7.10142 19.6545 7.07079C19.6671 7.04023 19.6791 7.00929 19.6902 6.9781C19.7014 6.94692 19.7118 6.91548 19.7214 6.88379C19.731 6.85204 19.7398 6.82017 19.7479 6.78798C19.756 6.75585 19.7632 6.72354 19.7696 6.69104C19.7761 6.65854 19.7818 6.62592 19.7866 6.59317C19.7915 6.56035 19.7956 6.52754 19.7988 6.49454C19.8021 6.46154 19.8045 6.42854 19.8061 6.39542C19.8078 6.36235 19.8086 6.32923 19.8086 6.2961C19.8086 6.26298 19.8078 6.22985 19.8061 6.19679C19.8045 6.16367 19.8021 6.13067 19.7988 6.09767C19.7956 6.06473 19.7915 6.03185 19.7866 5.9991C19.7818 5.96629 19.7761 5.93367 19.7696 5.90117C19.7632 5.86867 19.756 5.83635 19.7479 5.80423C19.7398 5.7721 19.731 5.74017 19.7214 5.70848C19.7118 5.67673 19.7014 5.64529 19.6902 5.6141C19.6791 5.58292 19.6671 5.55204 19.6545 5.52142C19.6418 5.49079 19.6283 5.46054 19.6142 5.4306C19.6 5.4006 19.5851 5.37104 19.5695 5.34179C19.5539 5.3126 19.5376 5.28379 19.5205 5.25535C19.5035 5.22698 19.4858 5.19898 19.4674 5.17142C19.449 5.14385 19.4299 5.11679 19.4101 5.09017C19.3905 5.06354 19.3701 5.03748 19.349 5.01185C19.328 4.98623 19.3064 4.96117 19.2841 4.9366C19.2619 4.91204 19.239 4.8881 19.2156 4.86467C19.1922 4.84123 19.1682 4.81835 19.1436 4.7961C19.1191 4.77392 19.094 4.75223 19.0684 4.73123C19.0428 4.71023 19.0167 4.68985 18.9901 4.6701C18.9635 4.65035 18.9364 4.63129 18.9088 4.61292C18.8813 4.59448 18.8533 4.57679 18.8249 4.55973C18.7965 4.54267 18.7676 4.52635 18.7385 4.51073C18.7092 4.49517 18.6796 4.48023 18.6497 4.4661C18.6198 4.45192 18.5895 4.43848 18.5588 4.42579C18.5283 4.4131 18.4973 4.40123 18.4661 4.39004C18.435 4.37892 18.4035 4.36848 18.3718 4.35892C18.3401 4.34929 18.3082 4.34042 18.276 4.33235C18.2439 4.32435 18.2116 4.3171 18.1791 4.3106C18.1466 4.30417 18.114 4.29848 18.0812 4.2936C18.0484 4.28879 18.0155 4.28473 17.9826 4.28148C17.9496 4.27823 17.9166 4.27579 17.8835 4.27417C17.8504 4.27254 17.8173 4.27173 17.7841 4.27173Z" fill="#752622"/>
<path d="M5.34392 6.60335V7.8186H7.07561C6.84892 8.55548 6.23405 9.08242 5.34392 9.08242C4.28367 9.08242 3.4248 8.22348 3.4248 7.16329C3.4248 6.10304 4.2843 5.2441 5.34392 5.2441C5.82048 5.2441 6.25548 5.41879 6.59092 5.70629L7.4863 4.81148C6.92123 4.29673 6.1693 3.98267 5.34392 3.98267C3.58673 3.98267 2.16211 5.40723 2.16211 7.16385C2.16211 8.92042 3.58673 10.345 5.34392 10.345C8.12598 10.345 8.60436 7.8481 8.34236 6.60798L5.34392 6.60335Z" fill="white"/>
</g>
<defs>
<clipPath id="clip0_8466_6689">
<rect y="0.0812988" width="24" height="24" rx="5" fill="white"/>
</clipPath>
</defs>
</svg>
