<svg width="24" height="24" viewBox="0 0 24 24" fill="none" xmlns="http://www.w3.org/2000/svg">
<g clip-path="url(#clip0_6907_37064)">
<path d="M24 12C24 18.6281 18.6281 24 12 24C5.37188 24 0 18.6281 0 12C0 5.37188 5.37188 0 12 0C18.6281 0 24 5.37188 24 12Z" fill="black"/>
<path d="M8.09219 17.4586H6.64844V7.41797H8.09219V11.9555V17.4586Z" fill="white"/>
<path d="M10.2109 7.41797H14.1109C17.8234 7.41797 19.4547 10.0711 19.4547 12.443C19.4547 15.0211 17.4391 17.468 14.1297 17.468H10.2109V7.41797ZM11.6547 16.1648H13.9516C17.2234 16.1648 17.9734 13.6805 17.9734 12.443C17.9734 10.4273 16.6891 8.72109 13.8766 8.72109H11.6547V16.1648Z" fill="white"/>
<path d="M8.31562 5.32578C8.31562 5.84141 7.89375 6.27266 7.36875 6.27266C6.84375 6.27266 6.42188 5.84141 6.42188 5.32578C6.42188 4.80078 6.84375 4.37891 7.36875 4.37891C7.89375 4.37891 8.31562 4.81016 8.31562 5.32578Z" fill="white"/>
</g>
<defs>
<clipPath id="clip0_6907_37064">
<rect width="24" height="24" fill="white"/>
</clipPath>
</defs>
</svg>
