<svg xmlns="http://www.w3.org/2000/svg" width="12" height="12" viewBox="0 0 12 12" fill="none">
    <path d="M11 1L6.26923 5.73077C6.23244 5.7653 6.20311 5.80701 6.18307 5.85331C6.16302 5.89962 6.15268 5.94954 6.15268 6C6.15268 6.05046 6.16302 6.10038 6.18307 6.14669C6.20311 6.19299 6.23244 6.2347 6.26923 6.26923L11 11" stroke="#4F7DC0" stroke-width="1.2" stroke-linecap="square" stroke-linejoin="round"/>
    <path d="M1 11L5.73077 6.26923C5.76756 6.2347 5.79689 6.19299 5.81693 6.14669C5.83698 6.10038 5.84732 6.05046 5.84732 6C5.84732 5.94954 5.83698 5.89962 5.81693 5.85331C5.79689 5.80701 5.76756 5.7653 5.73077 5.73077L1 1" stroke="#4F7DC0" stroke-width="1.2" stroke-linecap="square" stroke-linejoin="round"/>
</svg>